<svg width="51" height="50" viewBox="0 0 51 50" fill="none" xmlns="http://www.w3.org/2000/svg">
<path d="M19.3902 10H31.9902C36.7902 10 40.6902 13.9 40.6902 18.7V31.3C40.6902 33.6074 39.7736 35.8203 38.142 37.4518C36.5104 39.0834 34.2976 40 31.9902 40H19.3902C14.5902 40 10.6902 36.1 10.6902 31.3V18.7C10.6902 16.3926 11.6068 14.1797 13.2384 12.5482C14.8699 10.9166 17.0828 10 19.3902 10ZM19.0902 13C17.658 13 16.2845 13.5689 15.2718 14.5816C14.2591 15.5943 13.6902 16.9678 13.6902 18.4V31.6C13.6902 34.585 16.1052 37 19.0902 37H32.2902C33.7224 37 35.0959 36.4311 36.1086 35.4184C37.1213 34.4057 37.6902 33.0322 37.6902 31.6V18.4C37.6902 15.415 35.2752 13 32.2902 13H19.0902ZM33.5652 15.25C34.0625 15.25 34.5394 15.4475 34.891 15.7992C35.2426 16.1508 35.4402 16.6277 35.4402 17.125C35.4402 17.6223 35.2426 18.0992 34.891 18.4508C34.5394 18.8025 34.0625 19 33.5652 19C33.0679 19 32.591 18.8025 32.2394 18.4508C31.8877 18.0992 31.6902 17.6223 31.6902 17.125C31.6902 16.6277 31.8877 16.1508 32.2394 15.7992C32.591 15.4475 33.0679 15.25 33.5652 15.25ZM25.6902 17.5C27.6793 17.5 29.587 18.2902 30.9935 19.6967C32.4 21.1032 33.1902 23.0109 33.1902 25C33.1902 26.9891 32.4 28.8968 30.9935 30.3033C29.587 31.7098 27.6793 32.5 25.6902 32.5C23.7011 32.5 21.7934 31.7098 20.3869 30.3033C18.9804 28.8968 18.1902 26.9891 18.1902 25C18.1902 23.0109 18.9804 21.1032 20.3869 19.6967C21.7934 18.2902 23.7011 17.5 25.6902 17.5ZM25.6902 20.5C24.4967 20.5 23.3521 20.9741 22.5082 21.818C21.6643 22.6619 21.1902 23.8065 21.1902 25C21.1902 26.1935 21.6643 27.3381 22.5082 28.182C23.3521 29.0259 24.4967 29.5 25.6902 29.5C26.8837 29.5 28.0283 29.0259 28.8722 28.182C29.7161 27.3381 30.1902 26.1935 30.1902 25C30.1902 23.8065 29.7161 22.6619 28.8722 21.818C28.0283 20.9741 26.8837 20.5 25.6902 20.5Z" fill="white"/>
</svg>
