<svg width="44" height="50" viewBox="0 0 44 50" fill="none" xmlns="http://www.w3.org/2000/svg">
<path d="M20.1415 29.8407C19.3525 33.9716 18.391 37.9315 15.5396 40C14.6606 33.7571 16.8311 29.0697 17.8406 24.0928C16.1201 21.1979 18.0475 15.375 21.673 16.8105C26.1354 18.5745 17.8091 27.5683 23.3979 28.6932C29.2343 29.8647 31.6163 18.5685 27.9968 14.895C22.7695 9.58815 12.7782 14.7705 14.0081 22.3679C14.3066 24.2248 16.2251 24.7873 14.7746 27.3508C11.4282 26.6098 10.4292 23.9698 10.5582 20.4509C10.7652 14.691 15.7316 10.6606 20.7145 10.1011C27.0159 9.39465 32.9302 12.4156 33.7477 18.342C34.6672 25.0333 30.9038 32.2812 24.1644 31.7592C22.3375 31.6167 21.5725 30.7107 20.1415 29.8407Z" fill="white"/>
</svg>
