<svg width="38" height="30" viewBox="0 0 38 30" fill="none" xmlns="http://www.w3.org/2000/svg">
<path d="M37.6151 3.54754C36.2096 4.16137 34.7209 4.56386 33.1976 4.74191C34.7965 3.80298 35.9989 2.31399 36.5801 0.553175C35.0651 1.43504 33.4127 2.05618 31.692 2.39067C30.9674 1.63168 30.0958 1.02827 29.1303 0.617259C28.1648 0.206243 27.1257 -0.00376377 26.0764 5.10549e-05C21.8276 5.10549e-05 18.3833 3.39379 18.3833 7.57503C18.3833 8.16753 18.4508 8.7469 18.582 9.30003C15.5343 9.15508 12.5504 8.37642 9.82046 7.01373C7.09057 5.65104 4.67471 3.73425 2.72704 1.38567C2.04422 2.53767 1.68532 3.85276 1.68829 5.19191C1.6896 6.44435 2.00297 7.67671 2.60009 8.77764C3.1972 9.87857 4.05923 10.8134 5.10829 11.4975C3.88857 11.4581 2.69521 11.1325 1.62454 10.5469V10.6406C1.62454 14.3119 4.27766 17.3738 7.79328 18.0713C7.13255 18.2466 6.45187 18.3354 5.76828 18.3356C5.27141 18.3356 4.78954 18.2888 4.31891 18.195C4.82157 19.7099 5.78348 21.0306 7.07106 21.9738C8.35865 22.9169 9.90798 23.4357 11.5039 23.4581C8.76653 25.5666 5.40607 26.7057 1.95079 26.6962C1.3283 26.6962 0.717047 26.6587 0.115173 26.5912C3.64252 28.8238 7.73252 30.0061 11.907 30C26.0576 30 33.7938 18.4556 33.7938 8.44503L33.7676 7.46441C35.2767 6.40254 36.5803 5.07538 37.6151 3.54754Z" fill="white"/>
</svg>
