<svg width="44" height="30" viewBox="0 0 44 30" fill="none" xmlns="http://www.w3.org/2000/svg">
<path d="M17.833 21.4286L28.9545 15L17.833 8.57143V21.4286ZM42.6045 4.65C42.883 5.65714 43.0759 7.00714 43.2045 8.72143C43.3545 10.4357 43.4188 11.9143 43.4188 13.2L43.5473 15C43.5473 19.6929 43.2045 23.1429 42.6045 25.35C42.0688 27.2786 40.8259 28.5214 38.8973 29.0571C37.8902 29.3357 36.0473 29.5286 33.2188 29.6571C30.433 29.8071 27.883 29.8714 25.5259 29.8714L22.1188 30C13.1402 30 7.54733 29.6571 5.34019 29.0571C3.41161 28.5214 2.16876 27.2786 1.63304 25.35C1.35447 24.3429 1.16161 22.9929 1.03304 21.2786C0.883043 19.5643 0.818757 18.0857 0.818757 16.8L0.690186 15C0.690186 10.3071 1.03304 6.85714 1.63304 4.65C2.16876 2.72143 3.41161 1.47857 5.34019 0.942857C6.34733 0.664286 8.19019 0.471428 11.0188 0.342857C13.8045 0.192857 16.3545 0.128571 18.7116 0.128571L22.1188 0C31.0973 0 36.6902 0.342857 38.8973 0.942857C40.8259 1.47857 42.0688 2.72143 42.6045 4.65Z" fill="white"/>
</svg>
